<svg width="144" height="30" viewBox="0 0 144 30" fill="none" xmlns="http://www.w3.org/2000/svg">
<path fill-rule="evenodd" clip-rule="evenodd" d="M42.8166 8.62335C42.8166 20.4294 33.3418 30 21.6539 30C9.96599 30 0.491211 20.4294 0.491211 8.62335H42.8166Z" fill="#FF0055"/>
<path fill-rule="evenodd" clip-rule="evenodd" d="M102.923 8.58403V12.7707H97.8241V23.1919H92.9934V12.7707H89.4451V8.58403H92.9934V6.8368C92.9934 4.75877 93.5898 3.10226 94.7529 1.86727C95.9455 0.63253 97.4663 0 99.3449 0C100.538 0 101.819 0.180688 103.191 0.542064L102.535 4.60816C101.671 4.42747 100.955 4.33725 100.329 4.33725C98.8081 4.33725 97.8241 5.27076 97.8241 6.71651V8.58403H102.923ZM88.4917 14.8473C88.4917 12.7991 87.9255 11.1726 86.7922 9.96773C85.6592 8.73274 84.1684 8.13053 82.3495 8.13053C80.918 8.13053 79.6063 8.61245 78.3837 9.54596V8.58237H73.5235V23.1902H78.3837V14.0037C79.2186 13.0399 80.0832 12.5582 81.0078 12.5582C82.6773 12.5582 83.6612 13.6123 83.6612 15.6302V23.1902H88.4917V14.8473ZM66.0279 23.1914H70.8584V8.58357H66.0279V17.7999C65.1633 18.7637 64.2984 19.2456 63.3743 19.2456C61.7341 19.2456 60.7204 18.1916 60.7204 16.1734V8.58357H55.8899V16.9265C55.8899 19.0048 56.4563 20.6312 57.5896 21.8361C58.7227 23.0408 60.2135 23.6433 62.0621 23.6433C63.4936 23.6433 64.8055 23.1611 66.0279 22.2276V23.1914ZM119.158 15.8713C119.158 13.6728 118.412 11.8353 116.951 10.4199C115.49 8.9739 113.612 8.25115 111.346 8.25115C109.05 8.25115 107.171 8.9739 105.68 10.4199C104.219 11.8353 103.474 13.6728 103.474 15.8713C103.474 18.1002 104.219 19.9675 105.68 21.4436C107.171 22.9194 109.05 23.6422 111.346 23.6422C113.612 23.6422 115.49 22.9194 116.951 21.4436C118.412 19.9675 119.158 18.1002 119.158 15.8713ZM114.596 15.9015C114.596 13.9741 113.254 12.4679 111.346 12.4679C109.407 12.4679 108.066 13.9741 108.066 15.9015C108.066 17.9196 109.407 19.4255 111.346 19.4255C113.254 19.4255 114.596 17.9196 114.596 15.9015ZM125.964 23.1908H121.104V1.80607H125.964V23.1908ZM143.849 23.1908H139.018V22.4378C137.855 23.1908 136.544 23.5522 135.053 23.5522C133.085 23.5522 131.385 22.8295 129.984 21.3536C128.582 19.8776 127.867 18.0704 127.867 15.9019C127.867 13.7635 128.582 11.9561 129.984 10.5106C131.385 9.03482 133.085 8.31206 135.053 8.31206C136.544 8.31206 137.855 8.67344 139.018 9.42627V1.80607H143.849V23.1908ZM139.018 13.6443V18.1923C138.213 19.096 137.229 19.5476 136.037 19.5476C134.099 19.5476 132.608 17.9514 132.608 15.9032C132.608 14.9093 132.936 14.0357 133.591 13.343C134.248 12.6501 135.053 12.2887 136.037 12.2887C137.199 12.2887 138.213 12.7408 139.018 13.6443Z" fill="white"/>
</svg>
