<?xml version='1.0' encoding='utf-8'?>
<svg xmlns="http://www.w3.org/2000/svg" viewBox="0 0 128 128"> <path d="m38.09375,16.9375v2.34375c-1.00585,4.03857-1.26196,9.24386-.09375,12.4375l-.03125,6.625c-.72749,1.96365-1.09465,4.30379-.0625,6.09375v2.4375l-10.375-4.5-.125,1.6875-1.34375-.71875 .71875,2.21875-2.71875-.84375 1.3125,1.53125 11.84375,5.5625-.125,5.4375 .9375-.0625v1.3125l1.8125.46875 .75,3.375 .28125-8.8125 27.6875,13.03125c-2.72581,2.44653-5.50297,4.86729-8.4375,7.1875l-6.71875-3.125c-2.26024.25858-4.91996,1.21315-7.78125,2.75l-1.15625-.875 2.28125-2.1875 .46875-.78125-.5-1.40625c-2.41518,1.24082-4.70308,2.64126-6.90625,4.15625l-12.53125-5.75v-2.0625c1.54421.60006 3.1167,1.10433 4.71875.96875-2.1263-1.02895-3.48646-2.35707-4.71875-3.75v-3.4375l-2.21875-.875 1.5625-.28125-.40625-.625 1.03125-.125v-.8125c1.62543.83074 3.27331,1.58263 5.4375,1.15625-1.80284-1.04789-3.70069-2.16438-5.4375-3.40625v-4.46875c-.1667.06718-.41702.50627-.59375.34375-.32578-.29959-.59895-1.32492-.90625-1.15625-.22025.12089.05951,1.28513-.15625,1.8125-.12231.29895-.71296-.32845-.84375-.25l-.3125.53125c-.00357.35069.00266.54336 0,.875-.25428,1.10991-.7601,2.25126-.125,3.25 .1855,1.24661.09472,2.85326.09375,4.21875-.39008.04348-.86467,3.66466-.0625,4.875-.01152.61814-.01409,1.15733-.03125,1.84375l-2.5-1.15625-1.03125.53125 .40625,1.25-4.15625-.0625-.90625.46875 7.90625,3.96875 .03125,2.875 1-.3125 .3125.84375h.78125l.75,1.21875 .1875-3.125 8.09375,4.0625c-5.18523,4.13169-9.95674,8.81415-14.75,13.4375 .21982.53344 1.18825.31734 1.46875.65625-.00467.45596.2196,1.01335.28125,1.40625l-3.53125,1.75 .03125.125 3.25.09375-1.03125,1.34375 2.125-.25-3.8125,2.78125c2.78165-.13844 5.56959-.15606 8.375-.125 10.65924,6.05977 17.40466,6.656 23.9375,5.78125 .90854-.12165 1.83389-.27734 2.78125-.46875 5.49079-1.10939 11.71367-3.2559 19.59375-4.8125 2.22603-.23649 4.46741-.54013 6.71875-.9375 7.1706-5.11425 13.3971-11.17092 19.4375-17.5625-.08651-.99089-.25319-1.79344-.5-2.8125 .5997-.73536.95932-.73307 1.21875-1.375 .01164-.28973-.88997-.57814-.9375-.90625-.19163-1.12133-.1804-1.78264-.125-2.1875l.1875-.25 2.78125,1.15625 .1875-1.40625h.125l-.875-1.9375c.26366-.16111.55949-.40859.78125-.6875 .68025-.1102 1.60593.41631 2.28125.28125 .51658-.13308.70677-1.16161 1.09375-1.46875 1.03147.06054 1.79904.42033 2.5625-.125l7.65625-15.84375-.40625-2.3125-.125-.75h-.03125c-1.67043-8.56323-3.0074-13.71756-13.4375-19.40625-.83202.30261-1.62707.63951-2.40625,1l-1.34375-1.0625 1.625-2.125-.96875-.34375-.34375-1.28125-3.84375,5 1.3125.03125 .3125.78125 .71875-.625 .5625.625c-1.23092.68908-2.38496,1.46227-3.46875,2.3125l-1.84375-1.53125 .5625-.59375-.0625-.78125-.875-.78125-.09375.21875c-3.13453,2.43104-5.45543,3.94678-7.25,6.78125l-7.0625-3.1875c-.19526-.06926-.95058,2.91301-1.0625,2.84375l.03125-2.4375-.59375.40625-.0625-1.59375-3.8125-1.71875-2,.09375 .84375,1-1.59375-.34375 .1875,1-1.34375-.15625-1.78125.59375 20.28125,9.6875-5,12.21875c-3.10471,2.33878-5.99041,4.83448-8.84375,7.375l-18.1875-7.9375-1.09375,1.5625-.3125-2.15625-.78125,1.21875-.3125-1.71875-11.625-5.0625 .03125-2.5625c2.13785,1.01261 4.27496,1.99738 6.6875.8125-2.6089-1.27975-4.64794-2.96273-6.59375-4.875l.0625-4.40625-.5-.625 .1875-.75-.625-.46875 1-.53125 .03125-.9375c1.21043.80118 2.45478,1.43749 3.8125,1.28125-2.00244-2.22461-2.86129-4.08413-3.75-5.9375l.03125-1.28125c1.97117,1.1767 3.85672,2.52697 6.4375,2.28125-3.27153-1.9078-5.01994-3.81995-6.375-5.78125l.03125-2.5625-1.0625-4.125-.6875,1.53125-.25-1.46875-.5625,1.25-.78125-2.125zm.1875.90625 .34375,1.75 .53125-.625 .53125,1.0625 .5625-1.6875 1,3.9375c-.01383.63607-.01864,1.25993-.03125,1.875-1.01876-1.51986-1.83982-3.06202-2.9375-4.6875v-1.625zm12.09375,1.59375-.375,3.625 5,13.53125 .78125-3.0625 1.125,1.6875 .71875-4.15625-3.03125-6.53125-1.875,3.875 .59375-5.15625-1.3125-.4375-1.625-3.375zm-12.09375.59375c2.31118,3.49396 4.09553,7.27834 8.5,9.6875-1.73789.88442-4.91161-2.20118-7.0625-2.96875 1.19958,2.27903 2.77835,6.45444 4.84375,8.15625-2.73841-.27327-4.69499-2.26636-6.28125-3.34375-.59888-2.13822-1.48712-8.24951 0-11.53125zm12.40625.21875 .78125,2.78125 1.40625.40625-.21875,4.78125-2.21875-5.0625 .25-2.90625zm3.71875,4.90625 2.96875,6.25-.65625,2.84375-1.125-2.34375-.59375,3.59375-2.1875-7 1.59375-3.34375zm44.59375.40625 .15625.90625 1,.375-1.9375,2.28125 1.34375,1.03125c-.37168.18107-.73442.36792-1.09375.5625l-.9375-.78125-.5625.5625-.25-.75-.8125.125 3.09375-4.3125zm-58.59375,1.84375c.24172.12944.48132.26681.71875.40625-.0062.31909-.02592.64244-.03125.96875-.22185-.45711-.43244-.90682-.6875-1.375zm62.03125,2c.41446.21974.79925.42935 1.1875.65625-7.69957,4.53436-11.69476,9.12912-14.1875,13.46875l-1.34375-1.53125c1.82155-3.05318 3.39854-5.33712 5.34375-7.21875h.03125c.00521-.00503-.00521-.02623 0-.03125 2.20978-2.12826 4.89773-3.73927 8.96875-5.34375zm-9.9375.625 .4375.40625 .03125.65625-.5625.59375 1.875,1.8125c-.30911.25156-.60941.51626-.90625.78125l-2.28125-1.5-1.6875,2.09375 1.71875,1.6875c-.39126.44514-.7916.90071-1.15625,1.375-.1237-.1127-.54589-.36853-2.1875-1.21875l-2.375,2.6875-.21875-.90625-.8125.25c1.81675-3.96933 4.32874-5.76921 8.125-8.71875zm11.375.1875c.70671.42184 1.37776.86796 2,1.3125-4.67593,3.63327-8.72005,5.90261-15.375,13.21875l-.96875-1.09375c2.46818-4.29523 6.63699-8.92917 14.34375-13.4375zm-31.3125.8125 3.71875,1.75-.125,1.75 .625-.4375 .15625,2.8125 1.15625-3.28125 6.8125,3.21875c-.38071.63568-.75649,1.33158-1.09375,2.125l.34375.21875c.02507-.05898.06839-.09822.09375-.15625l.75-.0625 .46875.9375 1.59375-2.03125 2.21875,1.03125c-.70801,1.00699-1.37057,2.06022-1.96875,3.1875l-19.5625-9.125 1.0625-.28125 1.34375.0625-.21875-.9375 1.875.53125-.96875-1.21875 1.71875-.09375zm33.4375.59375c.79595.57582 1.52111,1.17158 2.1875,1.78125-6.08297,4.14491-11.21962,8.63082-16.03125,13.21875l-1.59375-1.8125c6.51762-7.14202 10.73344-9.53973 15.4375-13.1875zm-67.625.3125c.88889.51393 1.74903,1.15211 2.625,1.75-.00854.34013-.02387.63138-.03125,1-.00413.20637-1.02712.41466-1.03125.625-.00356.18157.62857.31528.625.5-.0052.26954-.21355.50453-.21875.78125l.5625.5625-.09375,4.15625c-.79731-.79534-1.59305-1.63985-2.40625-2.5l-.03125-6.875zm52.71875,1.25 2,1.34375c-.58075.53363-1.15471,1.10135-1.6875,1.6875l-1.5625-1.53125 1.25-1.5zm17.15625.28125c.62302.57437 1.19977,1.14944 1.71875,1.75-9.00495,7.25665-17.49659,14.66919-25.90625,22.03125l-1.125-.28125 .46875.875c-13.45208,11.77903-26.71536,23.44535-41.46875,34.3125-.89277-.15937-1.77726-.32842-2.65625-.5l20.96875-17.46875 .21875.09375c8.04712-6.26892 13.55174-12.62003 22.03125-18.875h.03125c.00501-.0037-.00502-.02755 0-.03125 3.23466-2.38364 6.18703-5.27916 10.59375-7.625l-.90625-1.03125c4.79621-4.57285 10.00224-9.1434 16.03125-13.25zm1.78125,1.8125c.53089.61971 1.00597,1.26267 1.4375,1.90625-6.06943,4.94922-11.96157,9.8988-17.75,14.84375l-.3125-1.15625-.78125,2.125c-1.94733,1.66623-3.88037,3.30589-5.8125,4.96875l-2.625-.6875c8.38499-7.37281 16.85922-14.75996 25.84375-22zm-22.28125,1.71875 1.9375,1.3125c-.0538.07248-.10305.14561-.15625.21875l-2.21875-1 .4375-.53125zm23.78125.3125c.30091.45552.58747.90933.84375,1.375-5.902,5.34582-11.85794,10.67471-17.875,15.96875l-.71875-2.46875c5.80077-4.96064 11.67491-9.91931 17.75-14.875zm.9375,1.5c.35834.66313.65922,1.35119.9375,2.03125-6.00499,5.50144-12.07113,10.94514-18.1875,16.34375l-.6875-2.375c6.01971-5.30271 12.00439-10.62721 17.9375-16zm-74.28125.3125c2.59662,2.39845 5.13646,5.62548 8.5625,7.03125-2.25923,1.46817-6.26632-1.0555-8.5625-1.875-.90589-1.77425-.91629-3.53125 0-5.15625zm33.8125.84375-23.8125,2.78125 3.4375,1.71875-1.15625.65625 1.6875.53125-2.96875,1.96875 19.375-3.03125-1.25-1.0625 4-.6875-2.5-.53125 3.1875-2.34375zm-1,.46875-2.90625,2 1.5625.34375-2.9375.78125 1.21875.84375-16.875,2.5625 2.0625-1.53125-1.96875-.28125 1.6875-.9375-3.15625-1.15625 21.3125-2.625zm42.46875.53125c.2206.54901.4183,1.09868.59375,1.65625-5.40127,5.16098-10.86901,10.27454-16.40625,15.34375l-2.34375-.4375-.0625-.21875c6.12511-5.40281 12.2082-10.83764 18.21875-16.34375zm-25.625,1.8125 4.25,4.96875c-3.56215,1.81139-6.07356,4.314-9.09375,6.53125l4.84375-11.5zm26.28125.0625c.20708.68011.38056,1.37344.53125,2.0625-4.61121,4.62387-9.26709,9.17661-13.96875,13.625l-2.84375-.53125c5.47571-4.99477 10.91937-10.03565 16.28125-15.15625zm-86.4375.0625 24.78125,10.78125 .3125,1.6875 .6875-.375 .5625,1.90625 .75-1.90625 .96875.125 17.1875,7.5c-1.31403,1.17305-2.62563,2.35165-3.9375,3.53125l-43.15625-20.21875-.84375-.78125 2.78125,1.03125-1.15625-1.6875 1.1875-.125-.125-1.46875zm10.78125,1.6875c.76835.25342 1.52593.61107 2.28125.96875l-.0625,2.53125-2.21875-.96875v-2.53125zm76.25.46875c.11754.55258.19338,1.10024.28125,1.65625-4.11467,4.14532-8.23948,8.17191-12.375,12.15625l-1.78125-.3125c4.71579-4.40444 9.35955-8.89743 13.875-13.5zm.3125,1.8125c.08453.55098.12637,1.10393.1875,1.65625-3.28366,3.62896-6.6037,7.24232-10,10.8125l-2.375-.4375c4.06466-3.93514 8.1254-7.93822 12.1875-12.03125zm-89.1875,1.5c.17815-.14496.57185,1.16067.75,1.09375l.34375-.25 .03125,3.84375c-.80226-.58642-1.56226-1.2066-2.25-1.84375 .01419-.21835.01519-.40019.03125-.625l.21875-.6875 .78125.15625 .09375-1.6875zm89.40625.40625c.01431.13617.04937.27009.0625.40625-.59895,1.23297-1.23681,2.43609-1.90625,3.625-1.18087,1.49904-5.44187,6.84411-11.53125,13.78125l-.34375-3.21875c.77671-.79528 1.56961-1.57822 2.34375-2.375l3-1.34375-1.46875-.28125c3.33975-3.50309 6.61646-7.02948 9.84375-10.59375zm.59375.71875 .25,1.96875c-2.52607,5.4293-4.62653,10.40927-7.65625,15.21875-.45864.34616-1.64261.2577-2.21875.3125-.47425.20587-.78107,1.10335-1.1875,1.40625-.75488-.43258-1.33273-.32868-2.15625-.1875 4.46103-5.20616 8.70125-10.99626 12.96875-18.71875zm-91.34375,2.03125c2.17966,1.76434 4.60806,3.71035 7.375,4.96875-1.83765.17417-5.50968-1.66752-7.40625-2.53125-.61774-.94458-.02455-1.64802.03125-2.4375zm13.3125.5625 2.8125,1.3125-.125,7.8125-.5625-2.78125-1.625-.40625-.09375-1.1875-.78125.125 .375-4.875zm55.59375,0 .34375,1.3125-2.625,6.875c-.07241-.05709-.14307-.66668-.21875-1.03125l2.5-7.15625zm-.90625,1.21875-1.71875,4.625c-.31794.27633-.65105.5359-.96875.8125l-2.8125-.71875 5.5-4.71875zm1.3125.40625 .625,2.4375-2.03125,1.9375 1.40625-4.375zm18.875.28125c-2.96887,5.04128-6.52752,9.75901-10.59375,14.4375l-.1875-1.5625c5.44703-6.2 9.07441-10.72495 10.78125-12.875zm-88.125.3125c.83495.28222 1.62311.65941 2.40625,1.0625v.71875l-1.03125.3125 .3125.59375-1.625.34375 2.375.96875v3.03125c-.80863-.93443-1.59735-1.87483-2.5-2.78125-.01029-1.38933.01693-2.82199.0625-4.25zm69.90625,2.03125 .40625,1.59375 .21875.9375-3.4375,3c-.47724-.4044-.93667-.83929-1.40625-1.28125l1.21875.40625 .84375-2.65625 2.15625-2zm-10.6875,1.28125 6.875,1.75c-.05276.38253-.05656.88313-.1875.84375l-6.40625-2.0625-.28125-.53125zm-.34375.3125 1.09375,2c-12.87087,11.08849-25.57346,22.09201-39.21875,32.78125-1.03071-.15572-2.05539-.35371-3.0625-.53125 14.70344-10.84641 27.85159-22.51931 41.1875-34.25zm11.9375.09375 10.40625,1.84375-1.28125.46875-8.90625-1.625-.21875-.6875zm-4.6875.15625-.28125.71875-.40625-.09375 .6875-.625zm-6.34375.4375 5.09375,1.6875c1.29441,1.30655 2.80088,2.40261 4.375,3.28125h.03125c.51675.28755 1.03763.57523 1.5625.8125 .16903,1.8122.9929,2.17105 2.65625,1.4375l.1875-.375c.82645.2061 1.61112.31254 2.375.34375l.46875,1.875c-4.35746,1.01302-10.72419-3.60795-15.125-6.0625l-1.625-3zm10.75.3125 .78125.15625-.25,2.71875-1.8125,1.625c-.73115-.44864-1.40523-.94828-2.0625-1.5l3.34375-2.96875v-.03125zm-70.65625.0625c2.14937,2.17016 4.16887,4.81834 6.75,6.125-2.51719-.32093-4.74808-1.2744-6.78125-2.1875-.55295-1.35513.04327-2.73944.03125-3.9375zm71.8125.1875 2.34375.46875-.46875,5.5c-.15493.24913-.29906.46956-.46875.625-1.13268.45158-1.34827.03069-1.8125-1l.40625-5.59375zm2.65625.53125 1.65625.34375-1.9375,2 .28125-2.34375zm-14.3125.34375 1.1875,2.21875c-12.02549,10.4468-24.22251,20.76102-36.46875,30.9375-1.28395-.14321-2.54125-.28386-3.78125-.46875 13.59672-10.65706 26.25419-21.64166 39.0625-32.6875zm16.09375.03125 1.84375.375-.9375.9375-.8125.3125 .03125.1875-.1875.5-2.3125,2.375 .3125-2.5 2.0625-2.1875zm2,.40625 .9375.1875-1.71875.625 .78125-.8125zm.75.6875-1.9375,2-.125-1.09375 2.0625-.90625zm-7.8125.8125-.21875,2.28125c-.51738-.2257-1.00349-.50218-1.46875-.78125l1.6875-1.5zm-9.375.125c.95738.44541 2.00951,1.07169 3.09375,1.75l-1.84375,1.65625-.09375-.8125 .15625-.1875-1.3125-2.40625zm-.40625.3125 1.0625,2c-11.14552,9.72052-22.43271,19.37071-33.8125,29.125-1.20226-.08371-2.37295-.18641-3.53125-.3125 12.23155-10.16348 24.33689-20.42029 36.28125-30.8125zm15.03125.03125 .71875,6.46875-1.0625-5.28125 .34375-1.1875zm-.375.28125-.3125.875 .40625,1.84375c-.82868-.05452-1.59964-.17084-2.3125-.3125v-.125l.03125-.03125 2.1875-2.25zm-75.90625.65625c.79648.28741 1.61779.61274 2.4375.9375v2.0625l-2.40625-1.125c-.01161-.73118-.01853-1.21052-.03125-1.875zm64.84375.53125c.7368.46189 1.47742.93399 2.25,1.40625l-5.5625,4.9375-2.9375-.125 4.40625-3.59375-.09375-.875 1.9375-1.75zm-67.4375.40625 17.5,8.125c-1.39608.97036-2.73113,2.00882-4.0625,3.0625l-18.875-9.4375 .53125-.25 4.5.1875-.6875-1.3125 1.09375-.375zm64.625.5-4.625,5.5 1.8125.125c-8.78589,7.82697-17.67348,15.58781-26.625,23.3125-1.33008-.02939-2.63411-.1329-3.90625-.21875 11.21212-9.61057 22.34382-19.13459 33.34375-28.71875zm.40625.3125 .1875,1.25-4.5,3.71875h-.09375l4.40625-4.96875zm4.78125.25c.77594.47197 1.55042.94111 2.34375,1.34375l-1.625,1.6875-.40625-.0625 .75-1.84375-6.09375,3.78125h-.3125l5.34375-4.90625zm2.5,1.40625c.4617.23018.94377.4402 1.40625.625l-2.03125,2.0625-1.03125-.25 .65625-.6875-.5625-.09375 1.5625-1.65625zm-2.1875.5-.21875,1.125 .8125.3125-.75.4375 1.28125.46875-3.09375,2.90625-.875-2.15625-2.0625-.09375 4.90625-3zm3.75.1875c.86677.33503 1.71195.56216 2.5625.65625l-2.4375,2.6875-1.4375-1.21875-3.28125,5.71875-.90625-2.21875 5.5-5.625zm5.21875.4375 .21875.75-1.59375,1.84375h-.03125l-2.65625,1.1875-.84375-.71875 2.625-2.8125c.77579.04676 1.54034-.00303 2.28125-.25zm-54.71875.84375 .5625.8125-.3125.46875-2.71875,2.4375 1.21875,1.15625c-.59385.3302-1.20443.68452-1.8125,1.0625l-2.34375-1.125-3.78125,2.90625 2,1.09375c-.57456.43723-1.17291.87178-1.75,1.34375l-1.84375-1.0625-3.0625,2.71875 1.84375,1.03125c-.6257.57705-1.25537,1.16822-1.875,1.78125l-1.8125-.9375-2.84375,2.625 1.84375,1.25c-.3613.3975-.70628.81002-1.0625,1.21875l-2.15625-1.09375-3.5625,2.625 1.40625,1.21875-1.40625.59375c-.43643-.32647-.4852-.79919-.65625-1.28125-.28867-.39368-.76494-.3121-.90625-.625 7.82395-6.77984 14.57558-14.62659 25.03125-20.21875zm54.96875.0625 .09375.34375 1.28125,1.75-2.75-.375 1.375-1.71875zm-6.625,1.34375 2.25,1.875-.125.125c-6.13722,6.68695-13.41196,13.33423-19.71875,19.75-1.92636.37521-3.79184.68636-5.59375.9375 6.384-6.05277 12.72277-12.12786 18.9375-18.28125l.8125,1.96875 3.4375-6.375zm-70.21875.1875 2.34375,1.15625-.0625,2.75-.46875-1h-.71875l-.46875-.8125-.71875.21875 .09375-2.3125zm59.46875.09375 3.46875.25c-8.62967,7.66918-17.4298,15.26954-26.25,23.03125-1.30653.03221-2.59575.05651-3.84375.03125 9.00237-7.76776 17.81927-15.50298 26.625-23.3125zm3.5625.25 1.375.09375 .34375.8125c-7.804,7.3121-15.65228,14.51386-23.46875,21.875-1.42073.10962-2.80591.20992-4.15625.25 8.78052-7.77113 17.35594-15.24589 25.90625-23.03125zm12.1875.15625 2.71875.21875 .0625,1.1875-2.96875-1.3125 .1875-.09375zm-46.375.25 .53125.21875c-9.44053,5.21231-16.65295,11.69895-23.21875,18.53125-.87738-.18482-1.74348-.38402-2.625-.5625 5.95641-6.93596 13.25208-14.94482 25.3125-18.1875zm45.875,0 .40625.15625-.28125.3125-1.0625,1.1875-.84375-.71875 1.78125-.9375zm-7.3125.21875-1.59375,1.625-.03125-.09375 1.625-1.53125zm-37.90625.0625 3.3125,1.46875c-7.91758,5.65622-15.86545,11.5178-22.28125,17.90625l-3.90625-.8125c6.45489-6.70375 13.60898-13.44858 22.875-18.5625zm35.3125.40625 1.09375,2.59375c-6.2614,6.2235-12.64373,12.38512-19.09375,18.5-1.755.24053-3.44481.42727-5.09375.5625 7.72522-7.27397 15.41653-14.42233 23.09375-21.65625zm10.09375.21875c.05179.61722.02605,1.37642.09375,1.84375 .04266.29453.82001.59431.8125.78125-.17319.45857-1.02669.9362-1.1875,1.40625 .34359.80721.22832,1.42281.1875,2.21875-4.84355,5.51617-10.93989,11.16964-19.03125,17.4375-21.68533,4.74033-43.19489-.78292-59.40625.71875l2.90625-2.28125-1.8125-.0625 1.1875-1.71875-3.71875.46875c2.50906-1.02943 5.09566-1.86502 7.5-3.15625 14.75261,4.35114 29.11595,5.25171 43.9375,3.8125 3.20393-.31111 6.43259-.73143 9.6875-1.25 6.7408-8.06794 12.18565-12.74275 18.84375-20.21875zm-2.28125.15625 .96875.8125c-5.91622,6.51017-11.51475,11.65717-17.875,18.3125-.97201.21713-1.90361.40847-2.84375.59375 6.65636-6.40526 13.32477-12.7333 19.59375-19.53125 .05577-.06029.10129-.12765.15625-.1875zm-39.65625.75 2.59375,1.15625-21.125,17.5c-1.1972-.23584-2.38089-.50178-3.5625-.75 6.36092-6.30176 14.13874-12.18639 22.0625-17.84375l.03125-.0625zm-16.53125,1.03125 2,.96875c-1.14448.72619-2.29457,1.55497-3.46875,2.4375l-1.78125-.9375 3.25-2.46875zm-5.375,4.28125 1.59375.9375c-.8467.70067-1.68727,1.41674-2.53125,2.1875l-1.625-.84375 2.5625-2.28125zm-4.78125,4.59375 1.46875.8125c-.77413.77317-1.55476,1.58066-2.3125,2.40625l-1.71875-1.125 2.5625-2.09375zm71.53125,2.9375-1.15625.40625 .1875,8.53125c-.73115.27431-1.34437-.27687-2-.53125-1.53125-.60487-3.0625-.68109-4.59375-.625 2.52732.26192 4.95131.65184 6.59375,1.78125 3.79498,2.60958 6.12354,3.21646 10.3125,5.125 1.69706.7156 3.61319,1.2395 4.6875,2.5-.39801-.93623-1.5304-1.60624-2.875-2.1875l.5-13.875-1.4375.5625-2.71875,1.75-2.15625-2.28125-1.5625.65625-1.28125,1.375-2.5-3.1875zm-.0625.1875 2.4375,3.15625-.46875.53125-2.90625-3.3125 .9375-.375zm-75.90625,1 1.96875.9375c-.3274.38023-.64647.7669-.96875,1.15625l-2.625,1.09375-1-1.15625 2.625-2.03125zm81.03125.21875 2.125,2.21875-.5.34375-2.65625-1.96875 1.03125-.59375zm6.34375.03125-.5,13.46875c-.30654-.12844-.6195-.25086-.9375-.375l.25-12.4375 1.1875-.65625zm-12,.40625 2.125,2.71875-.03125,6-1.75-.84375-.34375-7.875zm4.40625.59375 1.4375,1.09375-.15625,8.78125-3.40625-1.65625 .09375-5.78125 .25.3125 1.78125-2.75zm5.71875.3125-.09375,11.65625-1.6875-.8125 .15625-9.78125 1.625-1.0625zm-4.125.90625 1.25.96875 1.0625-.6875-.28125,9.5-2.15625-1.03125 .125-8.75zm-78.78125,7.5c.66354.01208 1.33499.04428 2,.0625l.34375,1.15625c-.75831-.38286-1.53962-.77504-2.34375-1.21875zm2.1875.0625c1.20556.03397 2.41439.07561 3.625.125l.875,3c-1.29861-.51919-2.67869-1.12058-4.125-1.84375l-.375-1.28125zm3.875.15625c1.09587.04547 2.18101.07171 3.28125.125l.90625,4.09375c-1.03176-.30216-2.09439-.65503-3.21875-1.09375l-.96875-3.125zm3.46875.15625 3.1875.15625 1.0625,4.75c-1.0322-.17549-2.09939-.43362-3.21875-.75l-1.03125-4.15625zm3.4375.15625 3.59375.1875 .9375,4.9375c-1.12208-.03527-2.29359-.14825-3.5-.34375l-1.03125-4.78125zm3.9375.1875c1.07291.05335 2.14111.10852 3.21875.15625l.78125,4.65625c-1.02588.09028-2.05743.14748-3.125.125l-.875-4.9375zm23.4375.15625c-.95849.22446-1.88993.45533-2.78125.6875l-.28125-.53125c1.01741-.04106 2.04008-.09028 3.0625-.15625zm-20,.03125c1.29373.05665 2.57414.0829 3.875.125 .04288,1.30933.64571,2.57196 1.03125,3.84375-.93338.19867-1.86073.37674-2.78125.5-.43595.05837-.87355.08291-1.3125.125l-.8125-4.59375zm4.03125.125c1.37078.04359 2.74591.07417 4.125.09375l.5625,2.8125c-1.21234.33212-2.38052.62272-3.53125.875-.35525-1.14908-.91432-2.74981-1.15625-3.78125zm12.71875,0 .3125.5625c-1.27359.33343-2.43422.67033-3.59375,1-.17145-.48495-.33156-.97386-.46875-1.46875 1.24519-.01635 2.49748-.04495 3.75-.09375zm-8.375.09375c1.42324.01867 2.84874.01569 4.28125,0 .14838.55061.40095,1.02083.625,1.53125-1.51872.43275-2.9966.83887-4.375,1.21875l-.53125-2.75zm-31.90625,3.53125-17.3125,10.15625 2.71875.1875-.96875,1.53125 2.65625-.21875-.03125,1.46875c6.17643-2.70668 6.89723-3.96295 13.96875-5.03125l-.4375-1.09375 1.5-1.875-1.65625-.53125 .71875-1.75-3.25,1.4375 2.09375-4.28125zm-.90625,1-2.1875,4.125 3.5625-1.71875-.9375,1.75 2,.1875-1.375,1.6875-.1875.625c-5.27498,1.09235-7.83165,2.79158-12.5,4.8125l.5-1.34375-3.03125.46875 1.5625-1.65625-2.46875.03125 15.0625-8.96875z" fill="#5c2700" fill-rule="evenodd"/> </svg>